<svg xmlns="http://www.w3.org/2000/svg" viewBox="0 0 64 64">
  <defs>
    <linearGradient id="bg" x1="0" y1="0" x2="1" y2="1">
      <stop offset="0%" stop-color="#07101f"/>
      <stop offset="100%" stop-color="#142645"/>
    </linearGradient>
    <linearGradient id="gold" x1="0" y1="0" x2="1" y2="1">
      <stop offset="0%" stop-color="#ffd86a"/>
      <stop offset="100%" stop-color="#f0a500"/>
    </linearGradient>
    <linearGradient id="card" x1="0" y1="0" x2="1" y2="1">
      <stop offset="0%" stop-color="#1d3358"/>
      <stop offset="100%" stop-color="#0a1428"/>
    </linearGradient>
  </defs>
  <rect width="64" height="64" rx="16" fill="url(#bg)"/>
  <rect x="14" y="18" width="18" height="28" rx="5" transform="rotate(-8 14 18)" fill="url(#card)" stroke="#2f4f7d"/>
  <rect x="31" y="18" width="18" height="28" rx="5" transform="rotate(8 31 18)" fill="url(#card)" stroke="#2f4f7d"/>
  <path d="M21 20h22" stroke="#7db8d6" stroke-opacity=".55" stroke-width="1.5"/>
  <path d="M23 27c2.8-3.8 5.9-5.7 9.4-5.7 3.4 0 6.5 1.9 9.3 5.7" stroke="#7db8d6" stroke-opacity=".38" stroke-width="1.5" fill="none"/>
  <path d="M32 10 37 17 44 15 41 23 47 28 39 29 37 37 32 31 27 37 25 29 17 28 23 23 20 15 27 17Z" fill="url(#gold)" stroke="#ffefb3" stroke-width="1"/>
  <path d="M28 46h8" stroke="#ffd86a" stroke-width="2" stroke-linecap="round"/>
</svg>